# xmcd
# 
# Track frame offsets:
#     150
#     15935
#     32855
#     45923
#     55860
#     72240
#     83808
#     103835
#     115338
#     129295
#     146505
#     158735
#     178130
#     192743
#     205440
#     233955
#     250180
#     267345
#     282200
#     296518
#     305675
#     319815
#     330293
# 
# Disc length: 4612
# 
# Revision: 0
# Processed by: cddbd v1.5.2PL0 Copyright (c) Steve Scherf et al.
# Submitted via: fre:ac v1.0.31
# 
DISCID=4f120217
DTITLE=Columbia Blues - Memphis Slim Raining The Blues
DYEAR=1960
DGENRE=Blues
TTITLE0=Beer Drinking Woman
TTITLE1=Teasing the Blues
TTITLE2=The I.C. Blues
TTITLE3=Baby Doll
TTITLE4=Just Blues
TTITLE5=Blue and Disgusted
TTITLE6=Blue Brew
TTITLE7=Rack 'em Back Jack
TTITLE8=Motherless Child
TTITLE9=Brenda
TTITLE10=When Your Dough Roller Is Gone
TTITLE11=Hey Slim
TTITLE12=Darling, I miss you so
TTITLE13=Lonesome Traveler
TTITLE14=No Strain
TTITLE15=Don't Think You're Smart
TTITLE16=Raining The Blues
TTITLE17=You're Gonna Need My Help One Day
TTITLE18=Angel Child
TTITLE19=Fast And Free
TTITLE20=My Baby Left ME
TTITLE21=Lucille
TTITLE22=Nice Stuff
EXTD=Fantasy  FCD-24705-2\nOriginally released as two disks:\n  "Just Blues" Prestige/Bluesville 1018 (tracks 1-12]\n  ""No Strain" (Prestige Bluesville 1031) (tracks 13-23]\nRecorded: 26-Apr-60 and 15-Nov-60\nMemphis Slim (Peter Chatman): Piano, Vocals\n
EXTD="Harpie Brown": Harmonica\nLafayette Thomas: Guitar\nWendell Marshall: Bass\n\nEntry update: Mike Lempriere  mikel@speakeasy.org  31-Dec-96\n YEAR: 1960 ID3G:   0
EXTT0=
EXTT1=
EXTT2=
EXTT3=
EXTT4=
EXTT5=
EXTT6=
EXTT7=
EXTT8=
EXTT9=
EXTT10=
EXTT11=
EXTT12=
EXTT13=
EXTT14=
EXTT15=
EXTT16=
EXTT17=
EXTT18=
EXTT19=
EXTT20=
EXTT21=
EXTT22=
PLAYORDER=
